<svg xmlns="http://www.w3.org/2000/svg" version="1.1" xmlns:xlink="http://www.w3.org/1999/xlink" viewBox="0 0 200 200"><rect width="200" height="200" fill="url('#gradient')"></rect><defs><linearGradient id="gradient" gradientTransform="rotate(45 0.5 0.5)"><stop offset="0%" stop-color="#100e0d"></stop><stop offset="100%" stop-color="#000000"></stop></linearGradient></defs><g><g fill="#5a8644" transform="matrix(2.9585874799357947,0,0,2.9585874799357947,10.087901337657655,121.73445744170041)" stroke="#5ed03e" stroke-width="0.2"><path d="M9.98 0L9.15-2.66L4.45-2.66L3.63 0L-0.03 0L5.19-14.22L8.41-14.22L13.66 0L9.98 0ZM6.80-10.23L5.27-5.30L8.33-5.30L6.80-10.23ZM21.00-10.64L20.94-7.59L19.85-7.67Q18.30-7.67 17.86-6.69L17.86-6.69L17.86 0L14.57 0L14.57-10.57L17.66-10.57L17.76-9.21Q18.59-10.76 20.08-10.76L20.08-10.76Q20.61-10.76 21.00-10.64L21.00-10.64ZM23.15-13.19L26.45-13.19L26.45-10.57L28.18-10.57L28.18-8.28L26.45-8.28L26.45-3.45Q26.45-2.85 26.66-2.62Q26.88-2.38 27.51-2.38L27.51-2.38Q28.00-2.38 28.33-2.44L28.33-2.44L28.33-0.09Q27.44 0.20 26.47 0.20L26.47 0.20Q24.78 0.20 23.96-0.61Q23.15-1.41 23.15-3.04L23.15-3.04L23.15-8.28L21.81-8.28L21.81-10.57L23.15-10.57L23.15-13.19ZM32.95-10.57L32.95 0L29.65 0L29.65-10.57L32.95-10.57ZM29.45-13.29L29.45-13.29Q29.45-13.99 29.96-14.44Q30.47-14.89 31.28-14.89Q32.09-14.89 32.60-14.44Q33.11-13.99 33.11-13.29Q33.11-12.59 32.60-12.14Q32.09-11.69 31.28-11.69Q30.47-11.69 29.96-12.14Q29.45-12.59 29.45-13.29ZM40.51-2.97L40.51-2.97Q40.51-3.39 40.07-3.64Q39.63-3.90 38.40-4.17Q37.17-4.44 36.37-4.89Q35.57-5.33 35.15-5.97Q34.73-6.60 34.73-7.42L34.73-7.42Q34.73-8.88 35.93-9.82Q37.13-10.76 39.07-10.76L39.07-10.76Q41.16-10.76 42.43-9.81Q43.70-8.87 43.70-7.32L43.70-7.32L40.40-7.32Q40.40-8.59 39.06-8.59L39.06-8.59Q38.54-8.59 38.19-8.31Q37.84-8.02 37.84-7.59L37.84-7.59Q37.84-7.15 38.27-6.88Q38.70-6.60 39.64-6.43Q40.59-6.25 41.30-6.01L41.30-6.01Q43.68-5.19 43.68-3.07L43.68-3.07Q43.68-1.62 42.40-0.71Q41.11 0.20 39.07 0.20L39.07 0.20Q37.71 0.20 36.65-0.29Q35.59-0.78 34.99-1.62Q34.39-2.46 34.39-3.39L34.39-3.39L37.47-3.39Q37.49-2.66 37.96-2.32Q38.43-1.98 39.16-1.98L39.16-1.98Q39.83-1.98 40.17-2.26Q40.51-2.53 40.51-2.97ZM45.76-13.19L49.05-13.19L49.05-10.57L50.79-10.57L50.79-8.28L49.05-8.28L49.05-3.45Q49.05-2.85 49.27-2.62Q49.48-2.38 50.12-2.38L50.12-2.38Q50.61-2.38 50.94-2.44L50.94-2.44L50.94-0.09Q50.05 0.20 49.08 0.20L49.08 0.20Q47.38 0.20 46.57-0.61Q45.76-1.41 45.76-3.04L45.76-3.04L45.76-8.28L44.41-8.28L44.41-10.57L45.76-10.57L45.76-13.19ZM57.62-2.97L57.62-2.97Q57.62-3.39 57.18-3.64Q56.74-3.90 55.51-4.17Q54.28-4.44 53.48-4.89Q52.68-5.33 52.26-5.97Q51.84-6.60 51.84-7.42L51.84-7.42Q51.84-8.88 53.04-9.82Q54.24-10.76 56.18-10.76L56.18-10.76Q58.27-10.76 59.54-9.81Q60.81-8.87 60.81-7.32L60.81-7.32L57.51-7.32Q57.51-8.59 56.17-8.59L56.17-8.59Q55.65-8.59 55.30-8.31Q54.95-8.02 54.95-7.59L54.95-7.59Q54.95-7.15 55.38-6.88Q55.81-6.60 56.75-6.43Q57.70-6.25 58.41-6.01L58.41-6.01Q60.79-5.19 60.79-3.07L60.79-3.07Q60.79-1.62 59.51-0.71Q58.22 0.20 56.18 0.20L56.18 0.20Q54.82 0.20 53.76-0.29Q52.70-0.78 52.10-1.62Q51.50-2.46 51.50-3.39L51.50-3.39L54.58-3.39Q54.60-2.66 55.07-2.32Q55.54-1.98 56.27-1.98L56.27-1.98Q56.94-1.98 57.28-2.26Q57.62-2.53 57.62-2.97Z"></path></g></g></svg>